<?xml version="1.0" encoding="UTF-8"?>
<svg width="32px" height="32px" viewBox="0 0 32 32" version="1.1" xmlns="http://www.w3.org/2000/svg" xmlns:xlink="http://www.w3.org/1999/xlink">
    <title>历史记录</title>
    <g id="Page-1" stroke="none" stroke-width="1" fill="none" fill-rule="evenodd">
        <g id="history" fill="#2B579A" fill-rule="nonzero">
            <path d="M16,2 C8.268,2 2,8.268 2,16 C2,23.732 8.268,30 16,30 C23.732,30 30,23.732 30,16 C30,8.268 23.732,2 16,2 Z M16,28 C9.373,28 4,22.627 4,16 C4,9.373 9.373,4 16,4 C22.627,4 28,9.373 28,16 C28,22.627 22.627,28 16,28 Z" id="Shape"></path>
            <path d="M21.707,15.293 L17,10.586 L17,16 C17,16.553 16.553,17 16,17 C15.447,17 15,16.553 15,16 L15,8 C15,7.447 15.447,7 16,7 L24,7 C24.553,7 25,7.447 25,8 C25,8.553 24.553,9 24,9 L18.414,9 L23.707,14.293 C24.098,14.684 24.098,15.316 23.707,15.707 C23.316,16.098 22.684,16.098 22.293,15.707 L21.707,15.293 Z" id="Path"></path>
            <path d="M16,17 C15.447,17 15,16.553 15,16 C15,15.447 15.447,15 16,15 C16.553,15 17,15.447 17,16 C17,16.553 16.553,17 16,17 Z" id="Path"></path>
            <path d="M8,10 C7.447,10 7,9.553 7,9 C7,8.447 7.447,8 8,8 L11,8 C11.553,8 12,8.447 12,9 C12,9.553 11.553,10 11,10 L8,10 Z" id="Path"></path>
            <path d="M8,14 C7.447,14 7,13.553 7,13 C7,12.447 7.447,12 8,12 L10,12 C10.553,12 11,12.447 11,13 C11,13.553 10.553,14 10,14 L8,14 Z" id="Path"></path>
            <path d="M8,18 C7.447,18 7,17.553 7,17 C7,16.447 7.447,16 8,16 L9,16 C9.553,16 10,16.447 10,17 C10,17.553 9.553,18 9,18 L8,18 Z" id="Path"></path>
            <path d="M8,22 C7.447,22 7,21.553 7,21 C7,20.447 7.447,20 8,20 L11,20 C11.553,20 12,20.447 12,21 C12,21.553 11.553,22 11,22 L8,22 Z" id="Path"></path>
            <path d="M14,22 C13.447,22 13,21.553 13,21 C13,20.447 13.447,20 14,20 L18,20 C18.553,20 19,20.447 19,21 C19,21.553 18.553,22 18,22 L14,22 Z" id="Path"></path>
        </g>
    </g>
</svg> 